# This file uses meters as units for non-parametric coordinates.

mtllib Bedcover.mtl
g default
v -2069.522949 226.727106 -892.897449
v -1928.581055 226.727106 -892.897449
v -2069.522949 226.727106 -1280.742176
v -1928.581055 226.727106 -1280.742176
vt 0.000000 0.000000
vt 1.000000 0.000000
vt 1.000000 1.000000
vt 0.000000 1.000000
vn 0.000000 1.000000 0.000000
vn 0.000000 1.000000 0.000000
vn 0.000000 1.000000 0.000000
vn 0.000000 1.000000 0.000000
s off
g polySurface2077 polySurface853
usemtl initialShadingGroup
f 1/1/1 2/2/2 4/3/3 3/4/4
