# File produced by Open Asset Import Library (http://www.assimp.sf.net)
# (assimp v3.1.35440475)

mtllib wallSP.mtl

# 108 vertex positions
v  138.15 130.428 0
v  129.819 130.428 -47.2501
v  127.135 133.24 -46.2734
v  135.295 133.24 0
v  103.642 133.24 -86.9656
v  105.829 130.428 -88.8013
v  67.6473 133.24 -117.169
v  69.0752 130.428 -119.642
v  23.4937 133.24 -133.239
v  23.9896 130.428 -136.051
v  -23.4936 133.24 -133.239
v  -23.9895 130.428 -136.051
v  -67.6473 133.24 -117.169
v  -69.0751 130.428 -119.642
v  -103.642 133.24 -86.9657
v  -105.829 130.428 -88.8013
v  -127.135 133.24 -46.2735
v  -129.819 130.428 -47.2502
v  -135.295 133.24 -3.2e-05
v  -138.15 130.428 -3.3e-05
v  -127.135 133.24 46.2734
v  -129.819 130.428 47.2502
v  -103.642 133.24 86.9657
v  -105.829 130.428 88.8013
v  -67.6473 133.24 117.169
v  -69.0752 130.428 119.642
v  -23.4937 133.24 133.239
v  -23.9896 130.428 136.051
v  23.4936 133.24 133.239
v  23.9895 130.428 136.051
v  67.6473 133.24 117.169
v  69.0751 130.428 119.642
v  103.642 133.24 86.9657
v  105.829 130.428 88.8013
v  127.135 133.24 46.2735
v  129.819 130.428 47.2502
v  112.446 133.24 0
v  105.665 133.24 -38.4588
v  102.981 130.428 -37.4821
v  109.59 130.428 0
v  83.9511 130.428 -70.4432
v  86.1387 133.24 -72.2789
v  54.7952 130.428 -94.908
v  56.223 133.24 -97.3811
v  19.0302 130.428 -107.925
v  19.5261 133.24 -110.738
v  -19.0301 130.428 -107.925
v  -19.526 133.24 -110.738
v  -54.7951 130.428 -94.908
v  -56.223 133.24 -97.3811
v  -83.951 130.428 -70.4433
v  -86.1386 133.24 -72.2789
v  -102.981 130.428 -37.4821
v  -105.665 133.24 -38.4588
v  -109.59 130.428 -2.6e-05
v  -112.446 133.24 -2.7e-05
v  -102.981 130.428 37.4821
v  -105.665 133.24 38.4588
v  -83.951 130.428 70.4433
v  -86.1387 133.24 72.2789
v  -54.7952 130.428 94.908
v  -56.223 133.24 97.3811
v  -19.0302 130.428 107.925
v  -19.5261 133.24 110.738
v  19.0301 130.428 107.925
v  19.526 133.24 110.738
v  54.7951 130.428 94.908
v  56.223 133.24 97.3811
v  83.951 130.428 70.4433
v  86.1387 133.24 72.2789
v  102.981 130.428 37.4821
v  105.665 133.24 38.4588
v  129.819 0 -47.2501
v  105.829 0 -88.8013
v  69.0752 0 -119.642
v  23.9896 0 -136.051
v  -23.9895 0 -136.051
v  -69.0751 0 -119.642
v  -105.829 0 -88.8013
v  -129.819 0 -47.2502
v  -138.15 0 -3.3e-05
v  -129.819 0 47.2502
v  -105.829 0 88.8013
v  -69.0752 0 119.642
v  -23.9896 0 136.051
v  23.9895 0 136.051
v  69.0751 0 119.642
v  105.829 0 88.8013
v  129.819 0 47.2502
v  138.15 0 0
v  102.981 0 -37.4821
v  83.9511 0 -70.4432
v  54.7952 0 -94.908
v  19.0302 0 -107.925
v  -19.0301 0 -107.925
v  -54.7951 0 -94.908
v  -83.951 0 -70.4433
v  -102.981 0 -37.4821
v  -109.59 0 -2.6e-05
v  -102.981 0 37.4821
v  -83.951 0 70.4433
v  -54.7952 0 94.908
v  -19.0302 0 107.925
v  19.0301 0 107.925
v  54.7951 0 94.908
v  83.951 0 70.4433
v  102.981 0 37.4821
v  109.59 0 0

# 166 UV coordinates
vt 0.575004 0.541606 0
vt 0.61877 0.541573 0
vt 0.618322 0.546893 0
vt 0.57546 0.546925 0
vt 0.662088 0.546861 0
vt 0.619226 0.546893 0
vt 0.662536 0.541541 0
vt 0.705854 0.546828 0
vt 0.662993 0.54686 0
vt 0.706303 0.541508 0
vt 0.74962 0.546796 0
vt 0.706759 0.546828 0
vt 0.750069 0.541476 0
vt 0.793387 0.546763 0
vt 0.750525 0.546795 0
vt 0.793835 0.541443 0
vt 0.04936 0.547315 0
vt 0.006499 0.547347 0
vt 0.006042 0.542028 0
vt 0.049809 0.541995 0
vt 0.093126 0.547283 0
vt 0.050265 0.547315 0
vt 0.093575 0.541963 0
vt 0.136893 0.547251 0
vt 0.094031 0.547282 0
vt 0.137341 0.54193 0
vt 0.180659 0.547218 0
vt 0.137797 0.54725 0
vt 0.181108 0.541898 0
vt 0.224425 0.547186 0
vt 0.181564 0.547217 0
vt 0.224874 0.541865 0
vt 0.268192 0.547153 0
vt 0.22533 0.547185 0
vt 0.26864 0.541833 0
vt 0.311958 0.547121 0
vt 0.269096 0.547152 0
vt 0.312406 0.5418 0
vt 0.355724 0.547088 0
vt 0.312862 0.54712 0
vt 0.356173 0.541768 0
vt 0.39949 0.547056 0
vt 0.356629 0.547087 0
vt 0.399939 0.541735 0
vt 0.443257 0.547023 0
vt 0.400395 0.547055 0
vt 0.443705 0.541703 0
vt 0.487023 0.546991 0
vt 0.444161 0.547022 0
vt 0.487471 0.54167 0
vt 0.530789 0.546958 0
vt 0.487927 0.54699 0
vt 0.531238 0.541638 0
vt 0.574555 0.546926 0
vt 0.531694 0.546958 0
vt 0.750849 0.773043 0
vt 0.739828 0.835543 0
vt 0.735467 0.833955 0
vt 0.746208 0.773043 0
vt 0.704541 0.887521 0
vt 0.708096 0.890504 0
vt 0.657159 0.927278 0
vt 0.659479 0.931297 0
vt 0.599036 0.948433 0
vt 0.599842 0.953003 0
vt 0.537184 0.948432 0
vt 0.536378 0.953003 0
vt 0.479062 0.927277 0
vt 0.476742 0.931296 0
vt 0.431681 0.887519 0
vt 0.428126 0.890502 0
vt 0.400755 0.833953 0
vt 0.396394 0.83554 0
vt 0.390015 0.773041 0
vt 0.385374 0.77304 0
vt 0.400756 0.712128 0
vt 0.396395 0.710541 0
vt 0.431682 0.658563 0
vt 0.428127 0.65558 0
vt 0.479064 0.618805 0
vt 0.476744 0.614786 0
vt 0.537186 0.597651 0
vt 0.536381 0.59308 0
vt 0.599039 0.597651 0
vt 0.599845 0.593081 0
vt 0.657161 0.618806 0
vt 0.659481 0.614787 0
vt 0.704542 0.658564 0
vt 0.708097 0.655581 0
vt 0.735468 0.71213 0
vt 0.739829 0.710543 0
vt 0.618587 0.294853 0
vt 0.662353 0.294821 0
vt 0.706119 0.294788 0
vt 0.749886 0.294756 0
vt 0.793652 0.294723 0
vt 0.005859 0.295308 0
vt 0.049626 0.295275 0
vt 0.093392 0.295243 0
vt 0.137158 0.29521 0
vt 0.180924 0.295178 0
vt 0.224691 0.295145 0
vt 0.268457 0.295113 0
vt 0.312223 0.29508 0
vt 0.355989 0.295048 0
vt 0.399756 0.295015 0
vt 0.443522 0.294983 0
vt 0.487288 0.294951 0
vt 0.531054 0.294918 0
vt 0.574821 0.294886 0
vt 0.77472 0.848242 0
vt 0.73654 0.914372 0
vt 0.678045 0.963454 0
vt 0.60629 0.98957 0
vt 0.52993 0.98957 0
vt 0.458176 0.963453 0
vt 0.399681 0.914369 0
vt 0.361502 0.84824 0
vt 0.348243 0.77304 0
vt 0.361503 0.697841 0
vt 0.399683 0.631712 0
vt 0.458178 0.582629 0
vt 0.529933 0.556513 0
vt 0.606293 0.556513 0
vt 0.678047 0.58263 0
vt 0.736542 0.631714 0
vt 0.774721 0.697843 0
vt 0.78798 0.773043 0
vt 0.551589 0.289591 0
vt 0.551969 0.012583 0
vt 0.59095 0.012636 0
vt 0.590569 0.289645 0
vt 0.62993 0.012689 0
vt 0.62955 0.289698 0
vt 0.668911 0.012744 0
vt 0.668531 0.289752 0
vt 0.707892 0.012796 0
vt 0.707511 0.289805 0
vt 0.005859 0.288841 0
vt 0.00624 0.011832 0
vt 0.045221 0.011886 0
vt 0.04484 0.288895 0
vt 0.084201 0.01194 0
vt 0.083821 0.288948 0
vt 0.123182 0.011993 0
vt 0.122801 0.289002 0
vt 0.162163 0.012047 0
vt 0.161782 0.289056 0
vt 0.201143 0.012101 0
vt 0.200763 0.289109 0
vt 0.240124 0.012154 0
vt 0.239743 0.289163 0
vt 0.279105 0.012207 0
vt 0.278724 0.289216 0
vt 0.318085 0.012262 0
vt 0.317705 0.28927 0
vt 0.357066 0.012314 0
vt 0.356685 0.289323 0
vt 0.396047 0.012369 0
vt 0.395666 0.289377 0
vt 0.435027 0.012422 0
vt 0.434647 0.28943 0
vt 0.474008 0.012476 0
vt 0.473627 0.289484 0
vt 0.512988 0.012529 0
vt 0.512608 0.289538 0

# 94 vertex normals
vn 0.999796 0.0202 0
vn 0.939501 0.0202 -0.34195
vn 0.128316 0.990633 -0.046703
vn 0.136551 0.990633 0
vn 0.104604 0.990633 -0.087773
vn 0.765888 0.0202 -0.642656
vn 0.068276 0.990633 -0.118257
vn 0.499898 0.0202 -0.865849
vn 0.023712 0.990633 -0.134477
vn 0.173613 0.0202 -0.984607
vn -0.023712 0.990633 -0.134477
vn -0.173612 0.0202 -0.984607
vn -0.068276 0.990633 -0.118257
vn -0.499898 0.0202 -0.865849
vn -0.104604 0.990633 -0.087774
vn -0.765888 0.0202 -0.642657
vn -0.128316 0.990633 -0.046703
vn -0.939501 0.0202 -0.341951
vn -0.136551 0.990633 -0
vn -0.999796 0.0202 -0
vn -0.128316 0.990633 0.046703
vn -0.939501 0.0202 0.34195
vn -0.104604 0.990633 0.087773
vn -0.765888 0.0202 0.642656
vn -0.068276 0.990633 0.118257
vn -0.499898 0.0202 0.865849
vn -0.023712 0.990633 0.134477
vn -0.173613 0.0202 0.984607
vn 0.023712 0.990633 0.134477
vn 0.173613 0.0202 0.984607
vn 0.068276 0.990633 0.118257
vn 0.499898 0.0202 0.865849
vn 0.104604 0.990633 0.087773
vn 0.765888 0.0202 0.642657
vn 0.128316 0.990633 0.046703
vn 0.939501 0.0202 0.34195
vn -0.085868 0.996307 0
vn -0.080689 0.996307 0.029368
vn -0.93945 0.022733 0.341932
vn -0.999742 0.022733 0
vn -0.765847 0.022733 0.642621
vn -0.065778 0.996307 0.055195
vn -0.499871 0.022733 0.865801
vn -0.042934 0.996307 0.074364
vn -0.173603 0.022733 0.984553
vn -0.014911 0.996307 0.084563
vn 0.173603 0.022733 0.984553
vn 0.014911 0.996307 0.084563
vn 0.499871 0.022733 0.865802
vn 0.042934 0.996307 0.074364
vn 0.765846 0.022733 0.642622
vn 0.065778 0.996307 0.055195
vn 0.93945 0.022733 0.341932
vn 0.080689 0.996307 0.029369
vn 0.999742 0.022733 0
vn 0.085868 0.996307 0
vn 0.93945 0.022733 -0.341932
vn 0.080689 0.996307 -0.029368
vn 0.765847 0.022733 -0.642621
vn 0.065778 0.996307 -0.055195
vn 0.499871 0.022733 -0.865802
vn 0.042934 0.996307 -0.074364
vn 0.173603 0.022733 -0.984553
vn 0.014911 0.996307 -0.084563
vn -0.173603 0.022733 -0.984553
vn -0.014911 0.996307 -0.084563
vn -0.499871 0.022733 -0.865802
vn -0.042934 0.996307 -0.074364
vn -0.765846 0.022733 -0.642622
vn -0.065779 0.996307 -0.055195
vn -0.93945 0.022733 -0.341932
vn -0.080689 0.996307 -0.029368
vn 0.939693 0 -0.34202
vn 0.766045 0 -0.642787
vn 0.5 0 -0.866025
vn 0.173648 0 -0.984808
vn -0.173648 0 -0.984808
vn -0.5 0 -0.866026
vn -0.766044 0 -0.642788
vn -0.939693 0 -0.34202
vn -1 0 -0
vn -0.939693 0 0.34202
vn -0.766044 0 0.642788
vn -0.5 0 0.866025
vn -0.173648 0 0.984808
vn 0.173648 0 0.984808
vn 0.5 0 0.866025
vn 0.766044 0 0.642788
vn 0.939693 0 0.34202
vn 1 0 0
vn -0.766045 0 0.642787
vn 0.5 0 0.866026
vn 0.766044 0 -0.642788
vn -0.5 0 -0.866025

# Mesh 'g Well_L_Well_L' with 180 faces
g g Well_L_Well_L
usemtl initialShadingGroup
f  1/1/1 2/2/2 3/3/3
f  3/3/3 4/4/4 1/1/1
f  5/5/5 3/6/3 2/2/2
f  2/2/2 6/7/6 5/5/5
f  7/8/7 5/9/5 6/7/6
f  6/7/6 8/10/8 7/8/7
f  9/11/9 7/12/7 8/10/8
f  8/10/8 10/13/10 9/11/9
f  11/14/11 9/15/9 10/13/10
f  10/13/10 12/16/12 11/14/11
f  13/17/13 11/18/11 12/19/12
f  12/19/12 14/20/14 13/17/13
f  15/21/15 13/22/13 14/20/14
f  14/20/14 16/23/16 15/21/15
f  17/24/17 15/25/15 16/23/16
f  16/23/16 18/26/18 17/24/17
f  19/27/19 17/28/17 18/26/18
f  18/26/18 20/29/20 19/27/19
f  21/30/21 19/31/19 20/29/20
f  20/29/20 22/32/22 21/30/21
f  23/33/23 21/34/21 22/32/22
f  22/32/22 24/35/24 23/33/23
f  25/36/25 23/37/23 24/35/24
f  24/35/24 26/38/26 25/36/25
f  27/39/27 25/40/25 26/38/26
f  26/38/26 28/41/28 27/39/27
f  29/42/29 27/43/27 28/41/28
f  28/41/28 30/44/30 29/42/29
f  31/45/31 29/46/29 30/44/30
f  30/44/30 32/47/32 31/45/31
f  33/48/33 31/49/31 32/47/32
f  32/47/32 34/50/34 33/48/33
f  35/51/35 33/52/33 34/50/34
f  34/50/34 36/53/36 35/51/35
f  4/54/4 35/55/35 36/53/36
f  36/53/36 1/1/1 4/54/4
f  37/56/37 38/57/38 39/58/39
f  39/58/39 40/59/40 37/56/37
f  41/60/41 39/58/39 38/57/38
f  38/57/38 42/61/42 41/60/41
f  43/62/43 41/60/41 42/61/42
f  42/61/42 44/63/44 43/62/43
f  45/64/45 43/62/43 44/63/44
f  44/63/44 46/65/46 45/64/45
f  47/66/47 45/64/45 46/65/46
f  46/65/46 48/67/48 47/66/47
f  49/68/49 47/66/47 48/67/48
f  48/67/48 50/69/50 49/68/49
f  51/70/51 49/68/49 50/69/50
f  50/69/50 52/71/52 51/70/51
f  53/72/53 51/70/51 52/71/52
f  52/71/52 54/73/54 53/72/53
f  55/74/55 53/72/53 54/73/54
f  54/73/54 56/75/56 55/74/55
f  57/76/57 55/74/55 56/75/56
f  56/75/56 58/77/58 57/76/57
f  59/78/59 57/76/57 58/77/58
f  58/77/58 60/79/60 59/78/59
f  61/80/61 59/78/59 60/79/60
f  60/79/60 62/81/62 61/80/61
f  63/82/63 61/80/61 62/81/62
f  62/81/62 64/83/64 63/82/63
f  65/84/65 63/82/63 64/83/64
f  64/83/64 66/85/66 65/84/65
f  67/86/67 65/84/65 66/85/66
f  66/85/66 68/87/68 67/86/67
f  69/88/69 67/86/67 68/87/68
f  68/87/68 70/89/70 69/88/69
f  71/90/71 69/88/69 70/89/70
f  70/89/70 72/91/72 71/90/71
f  40/59/40 71/90/71 72/91/72
f  72/91/72 37/56/37 40/59/40
f  73/92/73 74/93/74 6/7/6
f  6/7/6 2/2/2 73/92/73
f  74/93/74 75/94/75 8/10/8
f  8/10/8 6/7/6 74/93/74
f  75/94/75 76/95/76 10/13/10
f  10/13/10 8/10/8 75/94/75
f  76/95/76 77/96/77 12/16/12
f  12/16/12 10/13/10 76/95/76
f  77/97/77 78/98/78 14/20/14
f  14/20/14 12/19/12 77/97/77
f  78/98/78 79/99/79 16/23/16
f  16/23/16 14/20/14 78/98/78
f  79/99/79 80/100/80 18/26/18
f  18/26/18 16/23/16 79/99/79
f  80/100/80 81/101/81 20/29/20
f  20/29/20 18/26/18 80/100/80
f  81/101/81 82/102/82 22/32/22
f  22/32/22 20/29/20 81/101/81
f  82/102/82 83/103/83 24/35/24
f  24/35/24 22/32/22 82/102/82
f  83/103/83 84/104/84 26/38/26
f  26/38/26 24/35/24 83/103/83
f  84/104/84 85/105/85 28/41/28
f  28/41/28 26/38/26 84/104/84
f  85/105/85 86/106/86 30/44/30
f  30/44/30 28/41/28 85/105/85
f  86/106/86 87/107/87 32/47/32
f  32/47/32 30/44/30 86/106/86
f  87/107/87 88/108/88 34/50/34
f  34/50/34 32/47/32 87/107/87
f  88/108/88 89/109/89 36/53/36
f  36/53/36 34/50/34 88/108/88
f  89/109/89 90/110/90 1/1/1
f  1/1/1 36/53/36 89/109/89
f  90/110/90 73/92/73 2/2/2
f  2/2/2 1/1/1 90/110/90
f  38/57/38 3/111/3 5/112/5
f  5/112/5 42/61/42 38/57/38
f  42/61/42 5/112/5 7/113/7
f  7/113/7 44/63/44 42/61/42
f  44/63/44 7/113/7 9/114/9
f  9/114/9 46/65/46 44/63/44
f  46/65/46 9/114/9 11/115/11
f  11/115/11 48/67/48 46/65/46
f  48/67/48 11/115/11 13/116/13
f  13/116/13 50/69/50 48/67/48
f  50/69/50 13/116/13 15/117/15
f  15/117/15 52/71/52 50/69/50
f  52/71/52 15/117/15 17/118/17
f  17/118/17 54/73/54 52/71/52
f  54/73/54 17/118/17 19/119/19
f  19/119/19 56/75/56 54/73/54
f  56/75/56 19/119/19 21/120/21
f  21/120/21 58/77/58 56/75/56
f  58/77/58 21/120/21 23/121/23
f  23/121/23 60/79/60 58/77/58
f  60/79/60 23/121/23 25/122/25
f  25/122/25 62/81/62 60/79/60
f  62/81/62 25/122/25 27/123/27
f  27/123/27 64/83/64 62/81/62
f  64/83/64 27/123/27 29/124/29
f  29/124/29 66/85/66 64/83/64
f  66/85/66 29/124/29 31/125/31
f  31/125/31 68/87/68 66/85/66
f  68/87/68 31/125/31 33/126/33
f  33/126/33 70/89/70 68/87/68
f  70/89/70 33/126/33 35/127/35
f  35/127/35 72/91/72 70/89/70
f  72/91/72 35/127/35 4/128/4
f  4/128/4 37/56/37 72/91/72
f  37/56/37 4/128/4 3/111/3
f  3/111/3 38/57/38 37/56/37
f  91/129/82 39/130/39 41/131/41
f  41/131/41 92/132/91 91/129/82
f  92/132/91 41/131/41 43/133/43
f  43/133/43 93/134/84 92/132/91
f  93/134/84 43/133/43 45/135/45
f  45/135/45 94/136/85 93/134/84
f  94/136/85 45/135/45 47/137/47
f  47/137/47 95/138/86 94/136/85
f  95/139/86 47/140/47 49/141/49
f  49/141/49 96/142/92 95/139/86
f  96/142/92 49/141/49 51/143/51
f  51/143/51 97/144/88 96/142/92
f  97/144/88 51/143/51 53/145/53
f  53/145/53 98/146/89 97/144/88
f  98/146/89 53/145/53 55/147/55
f  55/147/55 99/148/90 98/146/89
f  99/148/90 55/147/55 57/149/57
f  57/149/57 100/150/73 99/148/90
f  100/150/73 57/149/57 59/151/59
f  59/151/59 101/152/93 100/150/73
f  101/152/93 59/151/59 61/153/61
f  61/153/61 102/154/75 101/152/93
f  102/154/75 61/153/61 63/155/63
f  63/155/63 103/156/76 102/154/75
f  103/156/76 63/155/63 65/157/65
f  65/157/65 104/158/77 103/156/76
f  104/158/77 65/157/65 67/159/67
f  67/159/67 105/160/94 104/158/77
f  105/160/94 67/159/67 69/161/69
f  69/161/69 106/162/79 105/160/94
f  106/162/79 69/161/69 71/163/71
f  71/163/71 107/164/80 106/162/79
f  107/164/80 71/163/71 40/165/40
f  40/165/40 108/166/81 107/164/80
f  108/166/81 40/165/40 39/130/39
f  39/130/39 91/129/82 108/166/81

