# File produced by Open Asset Import Library (http://www.assimp.sf.net)
# (assimp v3.1.35440475)

mtllib stonebed.mtl

# 56 vertex positions
v  -5568.3 51.0833 -6451.49
v  -5568.3 48.782 -6451.49
v  -5416.51 48.782 -6451.49
v  -5416.51 51.0833 -6451.49
v  -5568.3 102.623 -6582.01
v  -5568.3 102.623 -6514.05
v  -5416.51 102.623 -6514.05
v  -5416.51 102.623 -6582.01
v  -5568.3 48.782 -6845.45
v  -5568.3 51.0833 -6845.45
v  -5416.51 51.0833 -6845.45
v  -5416.51 48.782 -6845.45
v  -5568.3 8.73309 -6514.05
v  -5568.3 8.73309 -6582.01
v  -5455.21 6.98524 -6584.97
v  -5455.21 6.98524 -6511.42
v  -5455.21 50.5299 -6584.97
v  -5416.51 51.0833 -6582.01
v  -5416.51 51.0833 -6514.05
v  -5455.21 50.5299 -6511.42
v  -5568.3 48.782 -6514.05
v  -5568.3 51.0833 -6514.05
v  -5568.3 51.0833 -6582.01
v  -5568.3 48.782 -6582.01
v  -5568.3 102.623 -6509.66
v  -5416.51 102.623 -6509.66
v  -5416.51 51.0833 -6509.66
v  -5416.51 48.782 -6509.98
v  -5568.3 8.73309 -6509.66
v  -5416.51 8.73309 -6509.98
v  -5568.3 48.782 -6509.66
v  -5568.3 51.0833 -6509.66
v  -5568.3 8.73309 -6585.68
v  -5416.51 8.73309 -6585.68
v  -5416.51 48.782 -6585.68
v  -5416.51 51.0833 -6585.68
v  -5568.3 102.623 -6585.68
v  -5416.51 102.623 -6585.68
v  -5568.3 51.0833 -6585.68
v  -5568.3 48.782 -6585.68
v  -5568.3 8.73309 -6451.49
v  -5416.51 8.73309 -6451.49
v  -5568.3 8.73309 -6845.45
v  -5416.51 8.73309 -6845.45
v  -5568.3 102.623 -6845.45
v  -5416.51 102.623 -6845.45
v  -5568.3 102.623 -6451.49
v  -5416.51 102.623 -6451.49
v  -5455.02 22.1638 -6509.72
v  -5455.02 7.23971 -6509.78
v  -5386.1 7.23971 -6509.72
v  -5386.1 22.1638 -6509.72
v  -5455.02 22.1638 -6590.17
v  -5386.1 22.1638 -6590.17
v  -5455.02 7.23971 -6584.96
v  -5386.1 7.23971 -6590.17

# 106 UV coordinates
vt 0.019702 0.440067 0
vt 0.019702 0.434979 0
vt 0.343254 0.434978 0
vt 0.343254 0.440067 0
vt 0.28865 0.334514 0
vt 0.144334 0.334515 0
vt 0.144334 0.010962 0
vt 0.28865 0.010962 0
vt 0.679727 0.438599 0
vt 0.679727 0.443687 0
vt 0.356175 0.443687 0
vt 0.356175 0.438599 0
vt -0.104973 -0.494858 0
vt 0.039343 -0.494858 0
vt 0.039343 -0.171306 0
vt -0.104973 -0.171306 0
vt 0.289155 0.869435 0
vt 0.289155 0.874523 0
vt 0.144839 0.874523 0
vt 0.144839 0.869435 0
vt 0.719091 0.657639 0
vt 0.719091 0.662728 0
vt 0.574775 0.662727 0
vt 0.574775 0.657639 0
vt 0.135009 0.334515 0
vt 0.135009 0.010962 0
vt 0.135514 0.874523 0
vt 0.135514 0.869435 0
vt -0.114299 -0.494858 0
vt -0.114299 -0.171306 0
vt 0.728417 0.657639 0
vt 0.728417 0.662728 0
vt 0.047122 -0.494858 0
vt 0.047121 -0.171306 0
vt 0.296934 0.869435 0
vt 0.296934 0.874523 0
vt 0.296429 0.334515 0
vt 0.296429 0.010962 0
vt 0.566996 0.662727 0
vt 0.566996 0.657639 0
vt 0.019702 0.346422 0
vt 0.343254 0.346421 0
vt 0.135514 0.780878 0
vt 0.144839 0.780878 0
vt 0.289155 0.780878 0
vt 0.296934 0.780878 0
vt 0.679728 0.350042 0
vt 0.356175 0.350042 0
vt 0.566997 0.569082 0
vt 0.574775 0.569082 0
vt 0.719091 0.569082 0
vt 0.728417 0.569082 0
vt 0.598747 -0.494858 0
vt 0.598746 -0.171306 0
vt 0.848559 0.780878 0
vt 0.848559 0.869435 0
vt 0.848559 0.874523 0
vt 0.848055 0.334514 0
vt 0.848054 0.010962 0
vt 0.015371 0.662726 0
vt 0.015371 0.657637 0
vt 0.015372 0.56908 0
vt 0.011476 0.334515 0
vt 0.011476 0.010962 0
vt 0.011981 0.874523 0
vt 0.011981 0.869435 0
vt 0.011981 0.780878 0
vt -0.237832 -0.494858 0
vt -0.237832 -0.171306 0
vt 0.85195 0.569082 0
vt 0.85195 0.657639 0
vt 0.85195 0.662728 0
vt 0.679727 0.557653 0
vt 0.356175 0.557653 0
vt 0.848559 0.988489 0
vt 0.296934 0.988489 0
vt 0.289155 0.988489 0
vt 0.144839 0.988489 0
vt 0.135514 0.988489 0
vt 0.011981 0.988489 0
vt 0.019702 0.554033 0
vt 0.343254 0.554033 0
vt 0.85195 0.776694 0
vt 0.728417 0.776694 0
vt 0.719091 0.776694 0
vt 0.574775 0.776693 0
vt 0.566996 0.776693 0
vt 0.015371 0.776692 0
vt 0.696687 0.369828 0
vt 0.696692 0.345765 0
vt 0.817299 0.345791 0
vt 0.817294 0.369854 0
vt 0.962933 0.414155 0
vt 0.963546 0.554751 0
vt 0.842938 0.555277 0
vt 0.842325 0.414682 0
vt 0.818394 0.384569 0
vt 0.818388 0.408632 0
vt 0.69778 0.408598 0
vt 0.697786 0.384535 0
vt 0.698268 0.555908 0
vt 0.697655 0.415312 0
vt 0.818262 0.414786 0
vt 0.818875 0.555382 0
vt 0.986996 0.41405 0
vt 0.987608 0.554647 0

# 20 vertex normals
vn 0 0 1
vn 0 1 0
vn 0 0 -1
vn -0.015454 -0.999881 0
vn 0.014297 -0.999898 0
vn -1 0 0
vn 0.034773 -0.870122 -0.491608
vn 0.034773 -0.870122 -0.491607
vn -0.009193 -0.939428 0.342623
vn -0.010935 -0.891421 -0.453044
vn 0.021873 -0.846565 0.531836
vn 0.03717 0 -0.999309
vn 0.037169 0 -0.999309
vn 1 0 -3e-06
vn 0.018338 6e-06 0.999832
vn 0 -1 0
vn 1 0 0
vn -0.000409 -0.001898 0.999998
vn -0.037184 -0.171721 -0.984444
vn -1 -2.4e-05 0

# Mesh 'g polySurface2693_polySurface2693' with 104 faces
g g polySurface2693_polySurface2693
usemtl initialShadingGroup
f  1/1/1 2/2/1 3/3/1
f  3/3/1 4/4/1 1/1/1
f  5/5/2 6/6/2 7/7/2
f  7/7/2 8/8/2 5/5/2
f  9/9/3 10/10/3 11/11/3
f  11/11/3 12/12/3 9/9/3
f  13/13/4 14/14/4 15/15/4
f  15/15/4 16/16/4 13/13/4
f  17/17/5 18/18/5 19/19/5
f  19/19/5 20/20/5 17/17/5
f  21/21/6 22/22/6 23/23/6
f  23/23/6 24/24/6 21/21/6
f  6/6/2 25/25/2 26/26/2
f  26/26/2 7/7/2 6/6/2
f  19/19/7 27/27/8 28/28/7
f  19/19/7 28/28/7 20/20/7
f  29/29/9 13/13/9 16/16/9
f  16/16/9 30/30/9 29/29/9
f  31/31/6 32/32/6 22/22/6
f  22/22/6 21/21/6 31/31/6
f  33/33/10 34/34/10 15/15/10
f  33/33/10 15/15/10 14/14/10
f  35/35/11 36/36/11 18/18/11
f  18/18/11 17/17/11 35/35/11
f  37/37/2 5/5/2 8/8/2
f  8/8/2 38/38/2 37/37/2
f  24/24/6 23/23/6 39/39/6
f  39/39/6 40/40/6 24/24/6
f  2/2/1 41/41/1 42/42/1
f  42/42/1 3/3/1 2/2/1
f  20/20/12 28/28/13 30/43/13
f  30/43/13 16/44/12 20/20/12
f  15/45/14 17/17/14 20/20/14
f  20/20/14 16/44/14 15/45/14
f  15/45/15 34/46/15 35/35/15
f  35/35/15 17/17/15 15/45/15
f  43/47/3 9/9/3 12/12/3
f  12/12/3 44/48/3 43/47/3
f  24/24/6 40/40/6 33/49/6
f  33/49/6 14/50/6 24/24/6
f  13/51/6 21/21/6 24/24/6
f  24/24/6 14/50/6 13/51/6
f  13/51/6 29/52/6 31/31/6
f  31/31/6 21/21/6 13/51/6
f  33/33/16 43/53/16 44/54/16
f  44/54/16 34/34/16 33/33/16
f  44/55/17 12/56/17 35/35/17
f  35/35/17 34/46/17 44/55/17
f  12/56/17 11/57/17 36/36/17
f  36/36/17 35/35/17 12/56/17
f  45/58/2 37/37/2 38/38/2
f  38/38/2 46/59/2 45/58/2
f  10/60/6 9/61/6 40/40/6
f  40/40/6 39/39/6 10/60/6
f  9/61/6 43/62/6 33/49/6
f  33/49/6 40/40/6 9/61/6
f  25/25/2 47/63/2 48/64/2
f  48/64/2 26/26/2 25/25/2
f  4/65/17 3/66/17 28/28/17
f  28/28/17 27/27/17 4/65/17
f  3/66/17 42/67/17 30/43/17
f  30/43/17 28/28/17 3/66/17
f  41/68/16 29/29/16 30/30/16
f  30/30/16 42/69/16 41/68/16
f  41/70/6 2/71/6 31/31/6
f  31/31/6 29/52/6 41/70/6
f  2/71/6 1/72/6 32/32/6
f  32/32/6 31/31/6 2/71/6
f  10/10/3 45/73/3 46/74/3
f  46/74/3 11/11/3 10/10/3
f  46/75/17 38/76/17 36/36/17
f  36/36/17 11/57/17 46/75/17
f  38/76/17 8/77/17 18/18/17
f  18/18/17 36/36/17 38/76/17
f  8/77/17 7/78/17 19/19/17
f  19/19/17 18/18/17 8/77/17
f  7/78/17 26/79/17 27/27/17
f  27/27/17 19/19/17 7/78/17
f  48/80/17 4/65/17 27/27/17
f  27/27/17 26/79/17 48/80/17
f  47/81/1 1/1/1 4/4/1
f  4/4/1 48/82/1 47/81/1
f  47/83/6 25/84/6 32/32/6
f  32/32/6 1/72/6 47/83/6
f  25/84/6 6/85/6 22/22/6
f  22/22/6 32/32/6 25/84/6
f  6/85/6 5/86/6 23/23/6
f  23/23/6 22/22/6 6/85/6
f  5/86/6 37/87/6 39/39/6
f  39/39/6 23/23/6 5/86/6
f  45/88/6 10/60/6 39/39/6
f  39/39/6 37/87/6 45/88/6
f  49/89/18 50/90/18 51/91/18
f  51/91/18 52/92/18 49/89/18
f  53/93/2 49/94/2 52/95/2
f  52/95/2 54/96/2 53/93/2
f  55/97/19 53/98/19 54/99/19
f  54/99/19 56/100/19 55/97/19
f  50/101/16 55/102/16 56/103/16
f  56/103/16 51/104/16 50/101/16
f  52/95/17 51/104/17 56/103/17
f  56/103/17 54/96/17 52/95/17
f  53/93/20 55/105/20 50/106/20
f  50/106/20 49/94/20 53/93/20

